<svg width="20" height="20" viewBox="0 0 20 20" fill="currentColor" xmlns="http://www.w3.org/2000/svg">
<path d="M3.33333 10C3.33333 6.3181 6.3181 3.33333 10 3.33333C13.6819 3.33333 16.6667 6.3181 16.6667 10C16.6667 13.6819 13.6819 16.6667 10 16.6667C6.3181 16.6667 3.33333 13.6819 3.33333 10ZM10 1.66667C5.39762 1.66667 1.66667 5.39762 1.66667 10C1.66667 14.6023 5.39762 18.3333 10 18.3333C14.6023 18.3333 18.3333 14.6023 18.3333 10C18.3333 5.39762 14.6023 1.66667 10 1.66667ZM14.5476 7.88093L13.3691 6.70241L9.16667 10.9048L6.83926 8.57742L5.66074 9.75592L9.16667 13.2618L14.5476 7.88093Z"/>
</svg>
