<svg width="34" height="34" viewBox="0 0 34 34" fill="none" xmlns="http://www.w3.org/2000/svg">
<g>
<path d="M23.0835 15.4217L23.1505 15.4481C23.4925 16.1693 23.3753 17.804 23.1735 18.5868C22.7419 20.2338 21.6751 21.6427 20.2068 22.5047C18.9624 23.2389 17.2234 23.6174 15.813 23.2525L15.3566 23.1755C15.5234 22.9731 17.1503 21.2837 17.3014 21.2537C18.3833 21.0454 19.1934 20.7729 19.9738 19.9904C20.9029 19.0587 21.0053 18.3333 21.2782 17.2716C21.3194 17.1114 22.8218 15.6831 23.0835 15.4217Z" fill="currentColor"/>
<path d="M24.5233 7.99243C25.0723 7.33657 26.0235 6.51124 26.6312 5.85737C26.8263 5.64749 27.8599 4.60262 28.0201 4.47907C28.1782 4.35652 28.3682 4.28191 28.5674 4.26412C28.8606 4.23639 29.1527 4.32617 29.3798 4.51374C29.5939 4.6929 29.7248 4.95238 29.7416 5.23112C29.7609 5.5094 29.6627 5.81371 29.4719 6.01445C29.0732 6.43377 28.6514 6.84715 28.242 7.25598L25.9243 9.5709L18.7071 16.7882L10.2015 25.2942L7.41496 28.0809C6.97083 28.5251 6.5192 28.9756 6.07936 29.4193C5.42705 30.0774 4.32026 29.6996 4.25355 28.7719C4.22653 28.3954 4.39105 28.1244 4.63951 27.8527C5.34481 27.124 6.08447 26.4146 6.79768 25.693C7.00546 25.4828 7.33102 25.1827 7.51739 24.9673C4.90274 23.2647 2.92995 21.5277 1.07495 18.9685C0.809934 18.599 0.558164 18.2202 0.320119 17.8328C0.243136 17.7072 0.0708764 17.3897 0 17.289V16.716C0.165296 16.4657 0.322937 16.1621 0.489567 15.8953C0.790603 15.4195 1.11367 14.958 1.45771 14.5124C4.4201 10.6419 8.51507 7.72335 13.3349 6.73858C16.2831 6.13694 19.3345 6.27526 22.2163 7.14117C23.0745 7.40271 23.7069 7.68653 24.5233 7.99243ZM9.13288 23.3632C9.39409 23.0994 9.65839 22.8263 9.92232 22.5663C10.3751 22.1149 11.433 21.1157 11.8002 20.6701C10.8162 19.2946 10.4265 17.5812 10.7188 15.9154C11.0022 14.2604 11.9261 12.7837 13.2904 11.8051C14.6676 10.8271 16.3762 10.4346 18.0421 10.7134C19.0893 10.8893 19.8102 11.2483 20.6946 11.7966C21.3537 11.1387 22.2428 10.2998 22.8481 9.62081C20.6766 8.85986 19.2038 8.50907 16.8583 8.51597C11.9873 8.60104 7.97244 10.648 4.61955 14.1196C3.76772 15.0019 3.00044 15.9621 2.32775 16.9875C2.47063 17.2706 2.86489 17.7898 3.06693 18.0508C4.4376 19.8311 6.08258 21.3821 7.94026 22.6459C8.22255 22.8357 8.82918 23.2279 9.13288 23.3632ZM13.3485 19.1351C13.683 18.8068 14.0157 18.4768 14.3466 18.1449L17.5434 14.9466C17.9609 14.5295 18.7903 13.7476 19.1333 13.3385C18.274 12.9044 17.5689 12.6923 16.5908 12.795C15.3787 12.9375 14.422 13.4063 13.6537 14.3834C12.962 15.2664 12.6493 16.3879 12.7841 17.5014C12.854 18.0616 13.0634 18.6478 13.3485 19.1351Z" fill="currentColor"/>
<path d="M28.2398 10.2715C28.5247 10.4302 29.088 10.9105 29.3543 11.1414C31.02 12.5854 32.9774 14.7833 34 16.745V17.2567C31.3518 22.0697 26.0942 26.1761 20.6922 27.268C17.8483 27.8428 14.4394 27.7576 11.6828 26.8056C12.171 26.4123 12.8716 25.5689 13.421 25.0939C13.9413 25.1518 14.583 25.3096 15.1534 25.3798C17.0005 25.5999 18.872 25.4925 20.6818 25.0627C24.651 24.1125 28.0925 21.594 30.6232 18.442C30.9884 17.9872 31.3639 17.4988 31.6692 17.0017C31.5018 16.6937 31.1018 16.1857 30.8843 15.894C29.6207 14.1996 28.3138 13.0999 26.7142 11.7762C26.9838 11.5683 27.8941 10.5903 28.2398 10.2715Z" fill="currentColor"/>
</g>
</svg>
